<svg width="26" height="26" viewBox="0 0 26 26" fill="none" xmlns="http://www.w3.org/2000/svg">
<path d="M13 14.084C14.7949 14.084 16.25 12.6289 16.25 10.834C16.25 9.03906 14.7949 7.58398 13 7.58398C11.2051 7.58398 9.75 9.03906 9.75 10.834C9.75 12.6289 11.2051 14.084 13 14.084Z" stroke="#111111" stroke-width="2" stroke-linecap="round" stroke-linejoin="round"/>
<path d="M12.9997 2.16699C10.7011 2.16699 8.49673 3.08008 6.87142 4.7054C5.2461 6.33072 4.33301 8.53512 4.33301 10.8337C4.33301 12.8833 4.76851 14.2245 5.95801 15.7087L12.9997 23.8337L20.0413 15.7087C21.2308 14.2245 21.6663 12.8833 21.6663 10.8337C21.6663 8.53512 20.7532 6.33072 19.1279 4.7054C17.5026 3.08008 15.2982 2.16699 12.9997 2.16699V2.16699Z" stroke="#111111" stroke-width="2" stroke-linecap="round" stroke-linejoin="round"/>
</svg>
