<svg width="30" height="30" viewBox="0 0 30 30" fill="none" xmlns="http://www.w3.org/2000/svg">
<path d="M23.7227 10.5369C24.582 9.89233 25.3555 9.1189 25.957 8.21655C25.1836 8.5603 24.2812 8.81812 23.3789 8.90405C24.3242 8.34546 25.0117 7.48608 25.3555 6.41187C24.4961 6.92749 23.5078 7.31421 22.5195 7.52905C21.6602 6.62671 20.5 6.11108 19.2109 6.11108C16.7188 6.11108 14.6992 8.13062 14.6992 10.6228C14.6992 10.9666 14.7422 11.3103 14.8281 11.6541C11.0898 11.4392 7.73828 9.63452 5.50391 6.92749C5.11719 7.57202 4.90234 8.34546 4.90234 9.20483C4.90234 10.7517 5.67578 12.1267 6.92188 12.9431C6.19141 12.9001 5.46094 12.7283 4.85938 12.3845V12.4275C4.85938 14.6189 6.40625 16.4236 8.46875 16.8533C8.125 16.9392 7.69531 17.0251 7.30859 17.0251C7.00781 17.0251 6.75 16.9822 6.44922 16.9392C7.00781 18.7439 8.68359 20.033 10.6602 20.0759C9.11328 21.2791 7.17969 22.0095 5.07422 22.0095C4.6875 22.0095 4.34375 21.9666 4 21.9236C5.97656 23.2126 8.33984 23.9431 10.918 23.9431C19.2109 23.9431 23.7227 17.1111 23.7227 11.1384C23.7227 10.9236 23.7227 10.7517 23.7227 10.5369Z" fill="#6B7280"/>
</svg>
