<svg width="30" height="30" viewBox="0 0 30 30" fill="none" xmlns="http://www.w3.org/2000/svg">
<path d="M14.6572 3.66675C8.77051 3.66675 4.00098 8.47925 4.00098 14.323C4.00098 20.2097 8.77051 24.9792 14.6572 24.9792C20.501 24.9792 25.3135 20.2097 25.3135 14.323C25.3135 8.47925 20.501 3.66675 14.6572 3.66675ZM21.6611 8.60815C22.9502 10.155 23.7236 12.1316 23.7236 14.28C23.4229 14.1941 20.415 13.5925 17.4072 13.9792C17.1494 13.3777 16.9346 12.8621 16.5908 12.1746C19.9854 10.7996 21.4893 8.86597 21.6611 8.60815ZM20.6729 7.53394C20.501 7.79175 19.126 9.6394 15.9033 10.8425C14.3994 8.09253 12.7666 5.85815 12.5088 5.5144C15.3877 4.8269 18.4385 5.55737 20.6729 7.53394ZM10.7471 6.11597C11.0049 6.45972 12.6377 8.69409 14.1416 11.4011C9.8877 12.5183 6.14941 12.5183 5.71973 12.4753C6.32129 9.68237 8.21191 7.31909 10.7471 6.11597ZM5.54785 14.366C5.54785 14.28 5.54785 14.1941 5.54785 14.0652C5.93457 14.1082 10.3604 14.1511 14.8721 12.7761C15.1729 13.2917 15.3877 13.8074 15.6455 14.323C12.3369 15.2683 9.3291 17.9324 7.86816 20.4246C6.40723 18.8347 5.54785 16.6863 5.54785 14.366ZM9.02832 21.5417C10.0166 19.6082 12.5947 17.073 16.2471 15.8269C17.5361 19.1355 18.0518 21.9285 18.1807 22.7449C15.2588 23.991 11.7354 23.6472 9.02832 21.5417ZM19.7275 21.8855C19.6416 21.3699 19.126 18.7058 17.9658 15.3972C20.8018 14.9675 23.2939 15.698 23.6377 15.7839C23.208 18.3191 21.7471 20.5105 19.7275 21.8855Z" fill="#6B7280"/>
</svg>
