<svg width="30" height="30" viewBox="0 0 30 30" fill="none" xmlns="http://www.w3.org/2000/svg">
<path d="M14.9902 3.66675C9.10352 3.66675 4.33398 8.47925 4.33398 14.323C4.33398 20.2097 9.10352 24.9792 14.9902 24.9792C20.834 24.9792 25.6465 20.2097 25.6465 14.323C25.6465 8.47925 20.834 3.66675 14.9902 3.66675ZM21.9941 8.60815C23.2832 10.155 24.0566 12.1316 24.0566 14.28C23.7559 14.1941 20.748 13.5925 17.7402 13.9792C17.4824 13.3777 17.2676 12.8621 16.9238 12.1746C20.3184 10.7996 21.8223 8.86597 21.9941 8.60815ZM21.0059 7.53394C20.834 7.79175 19.459 9.6394 16.2363 10.8425C14.7324 8.09253 13.0996 5.85815 12.8418 5.5144C15.7207 4.8269 18.7715 5.55737 21.0059 7.53394ZM11.0801 6.11597C11.3379 6.45972 12.9707 8.69409 14.4746 11.4011C10.2207 12.5183 6.48242 12.5183 6.05273 12.4753C6.6543 9.68237 8.54492 7.31909 11.0801 6.11597ZM5.88086 14.366C5.88086 14.28 5.88086 14.1941 5.88086 14.0652C6.26758 14.1082 10.6934 14.1511 15.2051 12.7761C15.5059 13.2917 15.7207 13.8074 15.9785 14.323C12.6699 15.2683 9.66211 17.9324 8.20117 20.4246C6.74023 18.8347 5.88086 16.6863 5.88086 14.366ZM9.36133 21.5417C10.3496 19.6082 12.9277 17.073 16.5801 15.8269C17.8691 19.1355 18.3848 21.9285 18.5137 22.7449C15.5918 23.991 12.0684 23.6472 9.36133 21.5417ZM20.0605 21.8855C19.9746 21.3699 19.459 18.7058 18.2988 15.3972C21.1348 14.9675 23.627 15.698 23.9707 15.7839C23.541 18.3191 22.0801 20.5105 20.0605 21.8855Z" fill="#6B7280"/>
</svg>
