<svg width="30" height="30" viewBox="0 0 30 30" fill="none" xmlns="http://www.w3.org/2000/svg">
<path d="M11.0898 20.4246C11.0898 20.3386 11.0039 20.2527 10.875 20.2527C10.7461 20.2527 10.6602 20.3386 10.6602 20.4246C10.6602 20.5105 10.7461 20.5964 10.875 20.5535C11.0039 20.5535 11.0898 20.5105 11.0898 20.4246ZM9.75781 20.2097C9.75781 20.2957 9.84375 20.4246 9.97266 20.4246C10.0586 20.4675 10.1875 20.4246 10.2305 20.3386C10.2305 20.2527 10.1875 20.1667 10.0586 20.1238C9.92969 20.0808 9.80078 20.1238 9.75781 20.2097ZM11.6914 20.1667C11.5625 20.1667 11.4766 20.2527 11.4766 20.3816C11.4766 20.4675 11.6055 20.5105 11.7344 20.4675C11.8633 20.4246 11.9492 20.3816 11.9062 20.2957C11.9062 20.2097 11.7773 20.1238 11.6914 20.1667ZM14.4844 3.66675C8.55469 3.66675 4 8.22144 4 14.1511C4 18.9207 6.96484 23.0027 11.2617 24.4636C11.8203 24.5496 11.9922 24.2058 11.9922 23.948C11.9922 23.6472 11.9922 22.1863 11.9922 21.2839C11.9922 21.2839 8.98438 21.9285 8.33984 19.9949C8.33984 19.9949 7.86719 18.7488 7.17969 18.448C7.17969 18.448 6.19141 17.7605 7.22266 17.7605C7.22266 17.7605 8.29688 17.8464 8.89844 18.8777C9.84375 20.5535 11.3906 20.0808 12.0352 19.78C12.1211 19.0925 12.3789 18.6199 12.7227 18.3191C10.3164 18.0613 7.86719 17.7175 7.86719 13.5925C7.86719 12.3894 8.21094 11.8308 8.89844 11.0574C8.76953 10.7566 8.42578 9.6394 9.02734 8.1355C9.88672 7.87769 11.9922 9.29565 11.9922 9.29565C12.8516 9.03784 13.7539 8.9519 14.6562 8.9519C15.6016 8.9519 16.5039 9.03784 17.3633 9.29565C17.3633 9.29565 19.4258 7.83472 20.3281 8.1355C20.9297 9.6394 20.543 10.7566 20.457 11.0574C21.1445 11.8308 21.5742 12.3894 21.5742 13.5925C21.5742 17.7175 19.0391 18.0613 16.6328 18.3191C17.0195 18.6628 17.3633 19.3074 17.3633 20.3386C17.3633 21.7566 17.3203 23.5613 17.3203 23.905C17.3203 24.2058 17.5352 24.5496 18.0938 24.4207C22.3906 23.0027 25.3125 18.9207 25.3125 14.1511C25.3125 8.22144 20.457 3.66675 14.4844 3.66675ZM8.16797 18.491C8.08203 18.5339 8.125 18.6628 8.16797 18.7488C8.25391 18.7917 8.33984 18.8347 8.42578 18.7917C8.46875 18.7488 8.46875 18.6199 8.38281 18.5339C8.29688 18.491 8.21094 18.448 8.16797 18.491ZM7.69531 18.1472C7.65234 18.2332 7.69531 18.2761 7.78125 18.3191C7.86719 18.3621 7.95312 18.3621 7.99609 18.2761C7.99609 18.2332 7.95312 18.1902 7.86719 18.1472C7.78125 18.1042 7.73828 18.1042 7.69531 18.1472ZM9.07031 19.6941C9.02734 19.7371 9.02734 19.866 9.15625 19.9519C9.24219 20.0378 9.37109 20.0808 9.41406 19.9949C9.45703 19.9519 9.45703 19.823 9.37109 19.7371C9.28516 19.6511 9.15625 19.6082 9.07031 19.6941ZM8.59766 19.0496C8.51172 19.0925 8.51172 19.2214 8.59766 19.3074C8.68359 19.3933 8.76953 19.4363 8.85547 19.3933C8.89844 19.3503 8.89844 19.2214 8.85547 19.1355C8.76953 19.0496 8.68359 19.0066 8.59766 19.0496Z" fill="#6B7280"/>
</svg>
