<svg width="30" height="30" viewBox="0 0 30 30" fill="none" xmlns="http://www.w3.org/2000/svg">
<path d="M24.0557 10.5369C24.915 9.89233 25.6885 9.1189 26.29 8.21655C25.5166 8.5603 24.6143 8.81812 23.7119 8.90405C24.6572 8.34546 25.3447 7.48608 25.6885 6.41187C24.8291 6.92749 23.8408 7.31421 22.8525 7.52905C21.9932 6.62671 20.833 6.11108 19.5439 6.11108C17.0518 6.11108 15.0322 8.13062 15.0322 10.6228C15.0322 10.9666 15.0752 11.3103 15.1611 11.6541C11.4229 11.4392 8.07129 9.63452 5.83691 6.92749C5.4502 7.57202 5.23535 8.34546 5.23535 9.20483C5.23535 10.7517 6.00879 12.1267 7.25488 12.9431C6.52441 12.9001 5.79395 12.7283 5.19238 12.3845V12.4275C5.19238 14.6189 6.73926 16.4236 8.80176 16.8533C8.45801 16.9392 8.02832 17.0251 7.6416 17.0251C7.34082 17.0251 7.08301 16.9822 6.78223 16.9392C7.34082 18.7439 9.0166 20.033 10.9932 20.0759C9.44629 21.2791 7.5127 22.0095 5.40723 22.0095C5.02051 22.0095 4.67676 21.9666 4.33301 21.9236C6.30957 23.2126 8.67285 23.9431 11.251 23.9431C19.5439 23.9431 24.0557 17.1111 24.0557 11.1384C24.0557 10.9236 24.0557 10.7517 24.0557 10.5369Z" fill="#6B7280"/>
</svg>
