<svg width="30" height="30" viewBox="0 0 30 30" fill="none" xmlns="http://www.w3.org/2000/svg">
<path d="M10.7568 20.4246C10.7568 20.3386 10.6709 20.2527 10.542 20.2527C10.4131 20.2527 10.3271 20.3386 10.3271 20.4246C10.3271 20.5105 10.4131 20.5964 10.542 20.5535C10.6709 20.5535 10.7568 20.5105 10.7568 20.4246ZM9.4248 20.2097C9.4248 20.2957 9.51074 20.4246 9.63965 20.4246C9.72559 20.4675 9.85449 20.4246 9.89746 20.3386C9.89746 20.2527 9.85449 20.1667 9.72559 20.1238C9.59668 20.0808 9.46777 20.1238 9.4248 20.2097ZM11.3584 20.1667C11.2295 20.1667 11.1436 20.2527 11.1436 20.3816C11.1436 20.4675 11.2725 20.5105 11.4014 20.4675C11.5303 20.4246 11.6162 20.3816 11.5732 20.2957C11.5732 20.2097 11.4443 20.1238 11.3584 20.1667ZM14.1514 3.66675C8.22168 3.66675 3.66699 8.22144 3.66699 14.1511C3.66699 18.9207 6.63184 23.0027 10.9287 24.4636C11.4873 24.5496 11.6592 24.2058 11.6592 23.948C11.6592 23.6472 11.6592 22.1863 11.6592 21.2839C11.6592 21.2839 8.65137 21.9285 8.00684 19.9949C8.00684 19.9949 7.53418 18.7488 6.84668 18.448C6.84668 18.448 5.8584 17.7605 6.88965 17.7605C6.88965 17.7605 7.96387 17.8464 8.56543 18.8777C9.51074 20.5535 11.0576 20.0808 11.7021 19.78C11.7881 19.0925 12.0459 18.6199 12.3896 18.3191C9.9834 18.0613 7.53418 17.7175 7.53418 13.5925C7.53418 12.3894 7.87793 11.8308 8.56543 11.0574C8.43652 10.7566 8.09277 9.6394 8.69434 8.1355C9.55371 7.87769 11.6592 9.29565 11.6592 9.29565C12.5186 9.03784 13.4209 8.9519 14.3232 8.9519C15.2686 8.9519 16.1709 9.03784 17.0303 9.29565C17.0303 9.29565 19.0928 7.83472 19.9951 8.1355C20.5967 9.6394 20.21 10.7566 20.124 11.0574C20.8115 11.8308 21.2412 12.3894 21.2412 13.5925C21.2412 17.7175 18.7061 18.0613 16.2998 18.3191C16.6865 18.6628 17.0303 19.3074 17.0303 20.3386C17.0303 21.7566 16.9873 23.5613 16.9873 23.905C16.9873 24.2058 17.2021 24.5496 17.7607 24.4207C22.0576 23.0027 24.9795 18.9207 24.9795 14.1511C24.9795 8.22144 20.124 3.66675 14.1514 3.66675ZM7.83496 18.491C7.74902 18.5339 7.79199 18.6628 7.83496 18.7488C7.9209 18.7917 8.00684 18.8347 8.09277 18.7917C8.13574 18.7488 8.13574 18.6199 8.0498 18.5339C7.96387 18.491 7.87793 18.448 7.83496 18.491ZM7.3623 18.1472C7.31934 18.2332 7.3623 18.2761 7.44824 18.3191C7.53418 18.3621 7.62012 18.3621 7.66309 18.2761C7.66309 18.2332 7.62012 18.1902 7.53418 18.1472C7.44824 18.1042 7.40527 18.1042 7.3623 18.1472ZM8.7373 19.6941C8.69434 19.7371 8.69434 19.866 8.82324 19.9519C8.90918 20.0378 9.03809 20.0808 9.08105 19.9949C9.12402 19.9519 9.12402 19.823 9.03809 19.7371C8.95215 19.6511 8.82324 19.6082 8.7373 19.6941ZM8.26465 19.0496C8.17871 19.0925 8.17871 19.2214 8.26465 19.3074C8.35059 19.3933 8.43652 19.4363 8.52246 19.3933C8.56543 19.3503 8.56543 19.2214 8.52246 19.1355C8.43652 19.0496 8.35059 19.0066 8.26465 19.0496Z" fill="#6B7280"/>
</svg>
