<svg width="32" height="32" viewBox="0 0 32 32" fill="none" xmlns="http://www.w3.org/2000/svg">
<path d="M16 32C24.8366 32 32 24.8366 32 16C32 7.16344 24.8366 0 16 0C7.16344 0 0 7.16344 0 16C0 24.8366 7.16344 32 16 32Z" fill="#5D50C6"/>
<path d="M20.8002 8.2002H11.2002C9.53352 8.2002 8.2002 9.53352 8.2002 11.2002V20.8002C8.2002 22.4669 9.53352 23.8002 11.2002 23.8002H20.8002C22.4669 23.8002 23.8002 22.4669 23.8002 20.8002V11.2002C23.8002 9.53352 22.4669 8.2002 20.8002 8.2002ZM21.6669 10.0002H22.0002V12.6669H19.3335V10.0002H21.6669ZM13.8002 14.4002C14.2669 13.7335 15.1335 13.2669 16.0002 13.2669C16.8669 13.2669 17.7336 13.7335 18.2002 14.4002C18.5335 14.8669 18.7335 15.4002 18.7335 16.0002C18.7335 17.5335 17.4669 18.7335 16.0002 18.7335C14.5335 18.7335 13.2669 17.5335 13.2669 16.0002C13.2669 15.4002 13.4669 14.8669 13.8002 14.4002ZM22.2669 20.8002C22.2669 21.6002 21.6002 22.2669 20.8002 22.2669H11.2002C10.4002 22.2669 9.73353 21.6002 9.73353 20.8002V14.4002H12.0669C11.8669 14.8669 11.7335 15.4669 11.7335 16.0002C11.7335 18.3335 13.6669 20.2669 16.0002 20.2669C18.3335 20.2669 20.2669 18.3335 20.2669 16.0002C20.2669 15.4669 20.1335 14.8669 19.9335 14.4002H22.2669L22.2669 20.8002Z" fill="white"/>
</svg>
