<svg width="32" height="32" viewBox="0 0 32 32" fill="none" xmlns="http://www.w3.org/2000/svg">
<path d="M16 32C24.8366 32 32 24.8366 32 16C32 7.16344 24.8366 0 16 0C7.16344 0 0 7.16344 0 16C0 24.8366 7.16344 32 16 32Z" fill="#5D50C6"/>
<path d="M25.8005 11.4988C25.1149 11.8028 24.3773 12.0084 23.6038 12.1003C24.3935 11.6271 24.9996 10.8784 25.2857 9.98483C24.5467 10.4232 23.7279 10.7412 22.8571 10.9126C22.1595 10.1697 21.1655 9.70532 20.0648 9.70532C17.9531 9.70532 16.2404 11.418 16.2404 13.5298C16.2404 13.8295 16.2743 14.1213 16.3399 14.4014C13.1615 14.242 10.3433 12.7195 8.45687 10.405C8.12773 10.9697 7.93892 11.6271 7.93892 12.3279C7.93892 13.6544 8.61459 14.8255 9.64022 15.5112C9.01361 15.4915 8.4235 15.3195 7.90811 15.0323C7.90783 15.0485 7.90783 15.0648 7.90783 15.0808C7.90783 16.9338 9.22666 18.4794 10.9759 18.8305C10.6553 18.9183 10.3168 18.9648 9.96851 18.9648C9.72151 18.9648 9.48222 18.9412 9.24891 18.8967C9.73549 20.4157 11.1476 21.5215 12.8215 21.5526C11.5124 22.5785 9.86355 23.1897 8.07126 23.1897C7.76322 23.1897 7.45804 23.1718 7.15942 23.1361C8.85103 24.2216 10.8618 24.8545 13.0215 24.8545C20.056 24.8545 23.903 19.027 23.903 13.9727C23.903 13.807 23.8993 13.6419 23.8919 13.4781C24.6397 12.9391 25.288 12.2657 25.8005 11.4988Z" fill="#F1F2F2"/>
</svg>
