<svg width="32" height="32" viewBox="0 0 32 32" fill="none" xmlns="http://www.w3.org/2000/svg">
<path d="M16 32C24.8366 32 32 24.8366 32 16C32 7.16344 24.8366 0 16 0C7.16344 0 0 7.16344 0 16C0 24.8366 7.16344 32 16 32Z" fill="#5D50C6"/>
<path d="M25.8008 11.4985C25.1151 11.8026 24.3775 12.0082 23.604 12.1C24.3938 11.6269 24.9999 10.8782 25.2859 9.98459C24.547 10.423 23.7281 10.741 22.8573 10.9124C22.1597 10.1694 21.1657 9.70508 20.0651 9.70508C17.9533 9.70508 16.2406 11.4178 16.2406 13.5295C16.2406 13.8293 16.2746 14.1211 16.3402 14.4011C13.1617 14.2417 10.3435 12.7192 8.45711 10.4047C8.12797 10.9694 7.93916 11.6269 7.93916 12.3276C7.93916 13.6542 8.61484 14.8253 9.64047 15.5109C9.01385 15.4912 8.42374 15.3193 7.90836 15.032C7.90807 15.0483 7.90807 15.0646 7.90807 15.0805C7.90807 16.9336 9.22691 18.4792 10.9761 18.8303C10.6556 18.9181 10.317 18.9646 9.96875 18.9646C9.72176 18.9646 9.48246 18.9409 9.24915 18.8964C9.73573 20.4155 11.1478 21.5213 12.8218 21.5523C11.5126 22.5783 9.86379 23.1895 8.0715 23.1895C7.76347 23.1895 7.45829 23.1715 7.15967 23.1359C8.85128 24.2214 10.862 24.8543 13.0217 24.8543C20.0562 24.8543 23.9032 19.0268 23.9032 13.9725C23.9032 13.8068 23.8995 13.6416 23.8921 13.4779C24.6399 12.9388 25.2882 12.2655 25.8008 11.4985Z" fill="#F1F2F2"/>
</svg>
