<svg width="30" height="30" viewBox="0 0 30 30" fill="none" xmlns="http://www.w3.org/2000/svg">
<path d="M14.3232 3.66675C8.43652 3.66675 3.66699 8.47925 3.66699 14.323C3.66699 20.2097 8.43652 24.9792 14.3232 24.9792C20.167 24.9792 24.9795 20.2097 24.9795 14.323C24.9795 8.47925 20.167 3.66675 14.3232 3.66675ZM21.3271 8.60815C22.6162 10.155 23.3896 12.1316 23.3896 14.28C23.0889 14.1941 20.0811 13.5925 17.0732 13.9792C16.8154 13.3777 16.6006 12.8621 16.2568 12.1746C19.6514 10.7996 21.1553 8.86597 21.3271 8.60815ZM20.3389 7.53394C20.167 7.79175 18.792 9.6394 15.5693 10.8425C14.0654 8.09253 12.4326 5.85815 12.1748 5.5144C15.0537 4.8269 18.1045 5.55737 20.3389 7.53394ZM10.4131 6.11597C10.6709 6.45972 12.3037 8.69409 13.8076 11.4011C9.55371 12.5183 5.81543 12.5183 5.38574 12.4753C5.9873 9.68237 7.87793 7.31909 10.4131 6.11597ZM5.21387 14.366C5.21387 14.28 5.21387 14.1941 5.21387 14.0652C5.60059 14.1082 10.0264 14.1511 14.5381 12.7761C14.8389 13.2917 15.0537 13.8074 15.3115 14.323C12.0029 15.2683 8.99512 17.9324 7.53418 20.4246C6.07324 18.8347 5.21387 16.6863 5.21387 14.366ZM8.69434 21.5417C9.68262 19.6082 12.2607 17.073 15.9131 15.8269C17.2021 19.1355 17.7178 21.9285 17.8467 22.7449C14.9248 23.991 11.4014 23.6472 8.69434 21.5417ZM19.3936 21.8855C19.3076 21.3699 18.792 18.7058 17.6318 15.3972C20.4678 14.9675 22.96 15.698 23.3037 15.7839C22.874 18.3191 21.4131 20.5105 19.3936 21.8855Z" fill="#6B7280"/>
</svg>
