<svg width="30" height="30" viewBox="0 0 30 30" fill="none" xmlns="http://www.w3.org/2000/svg">
<path d="M11.4238 20.4246C11.4238 20.3386 11.3379 20.2527 11.209 20.2527C11.0801 20.2527 10.9941 20.3386 10.9941 20.4246C10.9941 20.5105 11.0801 20.5964 11.209 20.5535C11.3379 20.5535 11.4238 20.5105 11.4238 20.4246ZM10.0918 20.2097C10.0918 20.2957 10.1777 20.4246 10.3066 20.4246C10.3926 20.4675 10.5215 20.4246 10.5645 20.3386C10.5645 20.2527 10.5215 20.1667 10.3926 20.1238C10.2637 20.0808 10.1348 20.1238 10.0918 20.2097ZM12.0254 20.1667C11.8965 20.1667 11.8105 20.2527 11.8105 20.3816C11.8105 20.4675 11.9395 20.5105 12.0684 20.4675C12.1973 20.4246 12.2832 20.3816 12.2402 20.2957C12.2402 20.2097 12.1113 20.1238 12.0254 20.1667ZM14.8184 3.66675C8.88867 3.66675 4.33398 8.22144 4.33398 14.1511C4.33398 18.9207 7.29883 23.0027 11.5957 24.4636C12.1543 24.5496 12.3262 24.2058 12.3262 23.948C12.3262 23.6472 12.3262 22.1863 12.3262 21.2839C12.3262 21.2839 9.31836 21.9285 8.67383 19.9949C8.67383 19.9949 8.20117 18.7488 7.51367 18.448C7.51367 18.448 6.52539 17.7605 7.55664 17.7605C7.55664 17.7605 8.63086 17.8464 9.23242 18.8777C10.1777 20.5535 11.7246 20.0808 12.3691 19.78C12.4551 19.0925 12.7129 18.6199 13.0566 18.3191C10.6504 18.0613 8.20117 17.7175 8.20117 13.5925C8.20117 12.3894 8.54492 11.8308 9.23242 11.0574C9.10352 10.7566 8.75977 9.6394 9.36133 8.1355C10.2207 7.87769 12.3262 9.29565 12.3262 9.29565C13.1855 9.03784 14.0879 8.9519 14.9902 8.9519C15.9355 8.9519 16.8379 9.03784 17.6973 9.29565C17.6973 9.29565 19.7598 7.83472 20.6621 8.1355C21.2637 9.6394 20.877 10.7566 20.791 11.0574C21.4785 11.8308 21.9082 12.3894 21.9082 13.5925C21.9082 17.7175 19.373 18.0613 16.9668 18.3191C17.3535 18.6628 17.6973 19.3074 17.6973 20.3386C17.6973 21.7566 17.6543 23.5613 17.6543 23.905C17.6543 24.2058 17.8691 24.5496 18.4277 24.4207C22.7246 23.0027 25.6465 18.9207 25.6465 14.1511C25.6465 8.22144 20.791 3.66675 14.8184 3.66675ZM8.50195 18.491C8.41602 18.5339 8.45898 18.6628 8.50195 18.7488C8.58789 18.7917 8.67383 18.8347 8.75977 18.7917C8.80273 18.7488 8.80273 18.6199 8.7168 18.5339C8.63086 18.491 8.54492 18.448 8.50195 18.491ZM8.0293 18.1472C7.98633 18.2332 8.0293 18.2761 8.11523 18.3191C8.20117 18.3621 8.28711 18.3621 8.33008 18.2761C8.33008 18.2332 8.28711 18.1902 8.20117 18.1472C8.11523 18.1042 8.07227 18.1042 8.0293 18.1472ZM9.4043 19.6941C9.36133 19.7371 9.36133 19.866 9.49023 19.9519C9.57617 20.0378 9.70508 20.0808 9.74805 19.9949C9.79102 19.9519 9.79102 19.823 9.70508 19.7371C9.61914 19.6511 9.49023 19.6082 9.4043 19.6941ZM8.93164 19.0496C8.8457 19.0925 8.8457 19.2214 8.93164 19.3074C9.01758 19.3933 9.10352 19.4363 9.18945 19.3933C9.23242 19.3503 9.23242 19.2214 9.18945 19.1355C9.10352 19.0496 9.01758 19.0066 8.93164 19.0496Z" fill="#6B7280"/>
</svg>
