<svg width="30" height="30" viewBox="0 0 30 30" fill="none" xmlns="http://www.w3.org/2000/svg">
<path d="M23.3896 10.5369C24.249 9.89233 25.0225 9.1189 25.624 8.21655C24.8506 8.5603 23.9482 8.81812 23.0459 8.90405C23.9912 8.34546 24.6787 7.48608 25.0225 6.41187C24.1631 6.92749 23.1748 7.31421 22.1865 7.52905C21.3271 6.62671 20.167 6.11108 18.8779 6.11108C16.3857 6.11108 14.3662 8.13062 14.3662 10.6228C14.3662 10.9666 14.4092 11.3103 14.4951 11.6541C10.7568 11.4392 7.40527 9.63452 5.1709 6.92749C4.78418 7.57202 4.56934 8.34546 4.56934 9.20483C4.56934 10.7517 5.34277 12.1267 6.58887 12.9431C5.8584 12.9001 5.12793 12.7283 4.52637 12.3845V12.4275C4.52637 14.6189 6.07324 16.4236 8.13574 16.8533C7.79199 16.9392 7.3623 17.0251 6.97559 17.0251C6.6748 17.0251 6.41699 16.9822 6.11621 16.9392C6.6748 18.7439 8.35059 20.033 10.3271 20.0759C8.78027 21.2791 6.84668 22.0095 4.74121 22.0095C4.35449 22.0095 4.01074 21.9666 3.66699 21.9236C5.64355 23.2126 8.00684 23.9431 10.585 23.9431C18.8779 23.9431 23.3896 17.1111 23.3896 11.1384C23.3896 10.9236 23.3896 10.7517 23.3896 10.5369Z" fill="#6B7280"/>
</svg>
