<svg width="92" height="16" viewBox="0 0 92 16" fill="none" xmlns="http://www.w3.org/2000/svg">
<g clip-path="url(#clip0_417_2047)">
<path d="M3.61163 15.4425C3.22563 15.6405 2.78763 15.2935 2.86563 14.8505L3.69563 10.1205L0.17263 6.76452C-0.15637 6.45052 0.01463 5.87652 0.45563 5.81452L5.35363 5.11852L7.53763 0.791523C7.73463 0.401523 8.26763 0.401523 8.46463 0.791523L10.6486 5.11852L15.5466 5.81452C15.9876 5.87652 16.1586 6.45052 15.8286 6.76452L12.3066 10.1205L13.1366 14.8505C13.2146 15.2935 12.7766 15.6405 12.3906 15.4425L7.99963 13.1865L3.61063 15.4425H3.61163Z" fill="#FFBA0A"/>
</g>
<g clip-path="url(#clip1_417_2047)">
<path d="M22.6116 15.4425C22.2256 15.6405 21.7876 15.2935 21.8656 14.8505L22.6956 10.1205L19.1726 6.76452C18.8436 6.45052 19.0146 5.87652 19.4556 5.81452L24.3536 5.11852L26.5376 0.791523C26.7346 0.401523 27.2676 0.401523 27.4646 0.791523L29.6486 5.11852L34.5466 5.81452C34.9876 5.87652 35.1586 6.45052 34.8286 6.76452L31.3066 10.1205L32.1366 14.8505C32.2146 15.2935 31.7766 15.6405 31.3906 15.4425L26.9996 13.1865L22.6106 15.4425H22.6116Z" fill="#FFBA0A"/>
</g>
<g clip-path="url(#clip2_417_2047)">
<path d="M41.6116 15.4425C41.2256 15.6405 40.7876 15.2935 40.8656 14.8505L41.6956 10.1205L38.1726 6.76452C37.8436 6.45052 38.0146 5.87652 38.4556 5.81452L43.3536 5.11852L45.5376 0.791523C45.7346 0.401523 46.2676 0.401523 46.4646 0.791523L48.6486 5.11852L53.5466 5.81452C53.9876 5.87652 54.1586 6.45052 53.8286 6.76452L50.3066 10.1205L51.1366 14.8505C51.2146 15.2935 50.7766 15.6405 50.3906 15.4425L45.9996 13.1865L41.6106 15.4425H41.6116Z" fill="#FFBA0A"/>
</g>
<g clip-path="url(#clip3_417_2047)">
<path d="M60.6116 15.4425C60.2256 15.6405 59.7876 15.2935 59.8656 14.8505L60.6956 10.1205L57.1726 6.76452C56.8436 6.45052 57.0146 5.87652 57.4556 5.81452L62.3536 5.11852L64.5376 0.791523C64.7346 0.401523 65.2676 0.401523 65.4646 0.791523L67.6486 5.11852L72.5466 5.81452C72.9876 5.87652 73.1586 6.45052 72.8286 6.76452L69.3066 10.1205L70.1366 14.8505C70.2146 15.2935 69.7766 15.6405 69.3906 15.4425L64.9996 13.1865L60.6106 15.4425H60.6116Z" fill="#FFBA0A"/>
</g>
<g clip-path="url(#clip4_417_2047)">
<path d="M79.6116 15.4425C79.2256 15.6405 78.7876 15.2935 78.8656 14.8505L79.6956 10.1205L76.1726 6.76452C75.8436 6.45052 76.0146 5.87652 76.4556 5.81452L81.3536 5.11852L83.5376 0.791523C83.7346 0.401523 84.2676 0.401523 84.4646 0.791523L86.6486 5.11852L91.5466 5.81452C91.9876 5.87652 92.1586 6.45052 91.8286 6.76452L88.3066 10.1205L89.1366 14.8505C89.2146 15.2935 88.7766 15.6405 88.3906 15.4425L83.9996 13.1865L79.6106 15.4425H79.6116Z" fill="#FFBA0A"/>
</g>
<defs>
<clipPath id="clip0_417_2047">
<rect width="16" height="16" fill="white"/>
</clipPath>
<clipPath id="clip1_417_2047">
<rect width="16" height="16" fill="white" transform="translate(19)"/>
</clipPath>
<clipPath id="clip2_417_2047">
<rect width="16" height="16" fill="white" transform="translate(38)"/>
</clipPath>
<clipPath id="clip3_417_2047">
<rect width="16" height="16" fill="white" transform="translate(57)"/>
</clipPath>
<clipPath id="clip4_417_2047">
<rect width="16" height="16" fill="white" transform="translate(76)"/>
</clipPath>
</defs>
</svg>
