<svg width="32" height="32" viewBox="0 0 32 32" fill="none" xmlns="http://www.w3.org/2000/svg">
<path d="M16 32C24.8366 32 32 24.8366 32 16C32 7.16344 24.8366 0 16 0C7.16344 0 0 7.16344 0 16C0 24.8366 7.16344 32 16 32Z" fill="#5D50C6"/>
<path d="M25.8003 11.4985C25.1146 11.8026 24.377 12.0082 23.6035 12.1C24.3933 11.6269 24.9994 10.8782 25.2855 9.98459C24.5465 10.423 23.7276 10.741 22.8568 10.9124C22.1592 10.1694 21.1652 9.70508 20.0646 9.70508C17.9529 9.70508 16.2401 11.4178 16.2401 13.5295C16.2401 13.8293 16.2741 14.1211 16.3397 14.4011C13.1612 14.2417 10.343 12.7192 8.45662 10.4047C8.12749 10.9694 7.93867 11.6269 7.93867 12.3276C7.93867 13.6542 8.61435 14.8253 9.63998 15.5109C9.01336 15.4912 8.42325 15.3193 7.90787 15.032C7.90758 15.0483 7.90758 15.0646 7.90758 15.0805C7.90758 16.9336 9.22642 18.4792 10.9756 18.8303C10.6551 18.9181 10.3165 18.9646 9.96826 18.9646C9.72127 18.9646 9.48197 18.9409 9.24867 18.8964C9.73524 20.4155 11.1473 21.5213 12.8213 21.5523C11.5121 22.5783 9.8633 23.1895 8.07101 23.1895C7.76298 23.1895 7.4578 23.1715 7.15918 23.1359C8.85079 24.2214 10.8616 24.8543 13.0212 24.8543C20.0558 24.8543 23.9027 19.0268 23.9027 13.9725C23.9027 13.8068 23.899 13.6416 23.8916 13.4779C24.6394 12.9388 25.2877 12.2655 25.8003 11.4985Z" fill="#F1F2F2"/>
</svg>
