<svg width="76" height="76" viewBox="0 0 76 76" fill="none" xmlns="http://www.w3.org/2000/svg">
<path d="M35.7832 61.1167C35.2026 60.5361 34.8986 59.7972 34.8712 58.9C34.8437 58.0028 35.1213 57.2639 35.704 56.6833L51.2207 41.1667H15.8332C14.936 41.1667 14.1833 40.8627 13.5753 40.2547C12.9673 39.6467 12.6644 38.8951 12.6665 38C12.6665 37.1028 12.9705 36.3502 13.5785 35.7422C14.1865 35.1342 14.9381 34.8312 15.8332 34.8333H51.2207L35.704 19.3167C35.1235 18.7361 34.8458 17.9972 34.8712 17.1C34.8965 16.2028 35.2005 15.4639 35.7832 14.8833C36.3637 14.3028 37.1026 14.0125 37.9998 14.0125C38.8971 14.0125 39.636 14.3028 40.2165 14.8833L61.1165 35.7833C61.4332 36.0472 61.658 36.3776 61.791 36.7745C61.924 37.1714 61.9895 37.5799 61.9874 38C61.9874 38.4222 61.9219 38.8181 61.791 39.1875C61.6601 39.557 61.4353 39.9 61.1165 40.2167L40.2165 61.1167C39.636 61.6972 38.8971 61.9875 37.9998 61.9875C37.1026 61.9875 36.3637 61.6972 35.7832 61.1167Z" fill="white"/>
</svg>
