<svg width="26" height="26" viewBox="0 0 26 26" fill="none" xmlns="http://www.w3.org/2000/svg">
    <path d="M20.5827 4.33366H18.416V3.25033C18.416 2.96301 18.3019 2.68746 18.0987 2.48429C17.8955 2.28113 17.62 2.16699 17.3327 2.16699C17.0454 2.16699 16.7698 2.28113 16.5666 2.48429C16.3635 2.68746 16.2493 2.96301 16.2493 3.25033V4.33366H9.74935V3.25033C9.74935 2.96301 9.63521 2.68746 9.43205 2.48429C9.22888 2.28113 8.95333 2.16699 8.66602 2.16699C8.3787 2.16699 8.10315 2.28113 7.89998 2.48429C7.69682 2.68746 7.58268 2.96301 7.58268 3.25033V4.33366H5.41602C4.55406 4.33366 3.72741 4.67607 3.11792 5.28556C2.50843 5.89505 2.16602 6.7217 2.16602 7.58366V20.5837C2.16602 21.4456 2.50843 22.2723 3.11792 22.8818C3.72741 23.4912 4.55406 23.8337 5.41602 23.8337H20.5827C21.4446 23.8337 22.2713 23.4912 22.8808 22.8818C23.4903 22.2723 23.8327 21.4456 23.8327 20.5837V7.58366C23.8327 6.7217 23.4903 5.89505 22.8808 5.28556C22.2713 4.67607 21.4446 4.33366 20.5827 4.33366ZM21.666 20.5837C21.666 20.871 21.5519 21.1465 21.3487 21.3497C21.1455 21.5529 20.87 21.667 20.5827 21.667H5.41602C5.1287 21.667 4.85315 21.5529 4.64998 21.3497C4.44682 21.1465 4.33268 20.871 4.33268 20.5837V13.0003H21.666V20.5837ZM21.666 10.8337H4.33268V7.58366C4.33268 7.29634 4.44682 7.02079 4.64998 6.81763C4.85315 6.61446 5.1287 6.50033 5.41602 6.50033H7.58268V7.58366C7.58268 7.87098 7.69682 8.14653 7.89998 8.34969C8.10315 8.55286 8.3787 8.66699 8.66602 8.66699C8.95333 8.66699 9.22888 8.55286 9.43205 8.34969C9.63521 8.14653 9.74935 7.87098 9.74935 7.58366V6.50033H16.2493V7.58366C16.2493 7.87098 16.3635 8.14653 16.5666 8.34969C16.7698 8.55286 17.0454 8.66699 17.3327 8.66699C17.62 8.66699 17.8955 8.55286 18.0987 8.34969C18.3019 8.14653 18.416 7.87098 18.416 7.58366V6.50033H20.5827C20.87 6.50033 21.1455 6.61446 21.3487 6.81763C21.5519 7.02079 21.666 7.29634 21.666 7.58366V10.8337Z" fill="black"/>
</svg>
