<svg width="32" height="33" viewBox="0 0 32 33" fill="none" xmlns="http://www.w3.org/2000/svg">
<path d="M23.8912 19.5935C23.5459 19.9281 23.3872 20.4121 23.4659 20.8868L24.6512 27.4468C24.7512 28.0028 24.5165 28.5655 24.0512 28.8868C23.5952 29.2201 22.9885 29.2601 22.4912 28.9935L16.5859 25.9135C16.3805 25.8041 16.1525 25.7455 15.9192 25.7388H15.5579C15.4325 25.7575 15.3099 25.7975 15.1979 25.8588L9.29118 28.9535C8.99918 29.1001 8.66852 29.1521 8.34452 29.1001C7.55518 28.9508 7.02852 28.1988 7.15785 27.4055L8.34452 20.8455C8.42318 20.3668 8.26452 19.8801 7.91918 19.5401L3.10452 14.8735C2.70185 14.4828 2.56185 13.8961 2.74585 13.3668C2.92452 12.8388 3.38052 12.4535 3.93118 12.3668L10.5578 11.4055C11.0619 11.3535 11.5045 11.0468 11.7312 10.5935L14.6512 4.60683C14.7205 4.4735 14.8099 4.35083 14.9179 4.24683L15.0379 4.1535C15.1005 4.08416 15.1725 4.02683 15.2525 3.98016L15.3979 3.92683L15.6245 3.8335H16.1859C16.6872 3.8855 17.1285 4.1855 17.3592 4.6335L20.3179 10.5935C20.5312 11.0295 20.9459 11.3322 21.4245 11.4055L28.0512 12.3668C28.6112 12.4468 29.0792 12.8335 29.2645 13.3668C29.4392 13.9015 29.2885 14.4881 28.8779 14.8735L23.8912 19.5935Z" fill="#FACD49"/>
</svg>
